<?xml version="1.0" encoding="UTF-8" standalone="no"?>
<!-- Created with Inkscape (http://www.inkscape.org/) -->

<svg
   xmlns:dc="http://purl.org/dc/elements/1.1/"
   xmlns:cc="http://creativecommons.org/ns#"
   xmlns:rdf="http://www.w3.org/1999/02/22-rdf-syntax-ns#"
   xmlns:svg="http://www.w3.org/2000/svg"
   xmlns="http://www.w3.org/2000/svg"
   xmlns:sodipodi="http://sodipodi.sourceforge.net/DTD/sodipodi-0.dtd"
   xmlns:inkscape="http://www.inkscape.org/namespaces/inkscape"
   id="svg2"
   version="1.1"
   inkscape:version="0.48.4 r"
   width="1200"
   height="700"
   xml:space="preserve"
   sodipodi:docname="co-working-logo-final.svg"
   inkscape:export-filename="D:\coworking\logo\co-working-logo-final.png"
   inkscape:export-xdpi="90"
   inkscape:export-ydpi="90"><metadata
     id="metadata8"><rdf:RDF><cc:Work
         rdf:about=""><dc:format>image/svg+xml</dc:format><dc:type
           rdf:resource="http://purl.org/dc/dcmitype/StillImage" /><dc:title></dc:title></cc:Work></rdf:RDF></metadata><defs
     id="defs6"><clipPath
       clipPathUnits="userSpaceOnUse"
       id="clipPath16"><path
         d="M 0,560 960,560 960,0 0,0 0,560 z"
         id="path18" /></clipPath><clipPath
       clipPathUnits="userSpaceOnUse"
       id="clipPath16-0"><path
         inkscape:connector-curvature="0"
         d="M 0,560 960,560 960,0 0,0 0,560 z"
         id="path18-4" /></clipPath></defs><sodipodi:namedview
     pagecolor="#ffffff"
     bordercolor="#666666"
     borderopacity="1"
     objecttolerance="10"
     gridtolerance="10"
     guidetolerance="10"
     inkscape:pageopacity="0"
     inkscape:pageshadow="2"
     inkscape:window-width="1920"
     inkscape:window-height="1005"
     id="namedview4"
     showgrid="false"
     showguides="true"
     inkscape:guide-bbox="true"
     inkscape:zoom="0.476792"
     inkscape:cx="43.457243"
     inkscape:cy="356.6147"
     inkscape:window-x="-9"
     inkscape:window-y="-9"
     inkscape:window-maximized="1"
     inkscape:current-layer="layer2"><sodipodi:guide
       orientation="1,0"
       position="1066.3136,125.3178"
       id="guide3063" /><sodipodi:guide
       orientation="1,0"
       position="811.22881,71.186441"
       id="guide3065" /><sodipodi:guide
       orientation="1,0"
       position="694.80932,127.54237"
       id="guide3069" /><sodipodi:guide
       orientation="1,0"
       position="533.15678,242.47881"
       id="guide3112" /><sodipodi:guide
       orientation="0,1"
       position="988.90082,224.41652"
       id="guide3175" /><sodipodi:guide
       orientation="0,1"
       position="948.52682,199.77265"
       id="guide3149" /><sodipodi:guide
       orientation="0,1"
       position="1066.3136,91.75909"
       id="guide3151" /></sodipodi:namedview><g
     inkscape:groupmode="layer"
     id="layer4"
     inkscape:label="coworking"
     sodipodi:insensitive="true"><g
       style="display:inline"
       id="g20"
       transform="matrix(1.25,0,0,-1.25,188.98882,571.77332)"><path
         d="m 0,0 c 0.885,1.438 2.435,1.881 3.873,1.217 l 15.381,-6.75 c 1.218,-0.443 1.771,-2.213 0.996,-3.32 -7.857,-13.5 -22.796,-22.463 -39.615,-22.463 -24.898,0 -45.813,20.14 -45.813,44.816 0,24.677 20.915,44.817 45.813,44.817 16.819,0 31.537,-8.964 39.505,-22.243 0.663,-1.106 0.221,-2.877 -0.996,-3.43 L 3.873,25.894 C 2.435,25.119 0.885,25.562 0,27 c -4.205,5.976 -11.287,9.96 -19.365,9.96 -12.947,0 -23.46,-10.402 -23.46,-23.46 0,-13.058 10.513,-23.459 23.46,-23.459 8.189,0 15.16,3.983 19.365,9.959"
         style="fill:#e9b11e;fill-opacity:1;fill-rule:nonzero;stroke:none"
         id="path22"
         inkscape:connector-curvature="0" /></g><g
       style="display:inline"
       id="g24"
       transform="matrix(1.25,0,0,-1.25,243.3482,537.29795)"><path
         d="m 0,0 c 0,-9.522 8.551,-17.107 19.083,-17.107 10.802,0 19.083,7.585 19.083,17.107 0,9.522 -8.281,17.106 -19.083,17.106 C 8.551,17.106 0,9.522 0,0 m -18.183,0 c 0,17.994 17.013,32.68 37.266,32.68 20.524,0 37.266,-14.686 37.266,-32.68 0,-17.994 -16.742,-32.68 -37.266,-32.68 -20.253,0 -37.266,14.686 -37.266,32.68"
         style="fill:#e9b11e;fill-opacity:1;fill-rule:nonzero;stroke:none"
         id="path26"
         inkscape:connector-curvature="0" /></g><g
       style="display:inline"
       id="g28"
       transform="matrix(1.25,0,0,-1.25,308.40144,587.59532)"><path
         d="m 0,0 c 1.14,0.011 2.114,-0.927 2.124,-2.046 l 0.121,-13.085 c 0.01,-1.118 -0.946,-2.074 -2.086,-2.085 l -64.195,-0.596 c -1.141,-0.01 -2.114,0.927 -2.124,2.047 l -0.121,13.084 c -0.01,1.119 0.946,2.075 2.086,2.086 L 0,0 z"
         style="fill:#e9b11e;fill-opacity:1;fill-rule:nonzero;stroke:none"
         id="path30"
         inkscape:connector-curvature="0" /></g><g
       style="display:inline"
       id="g32"
       transform="matrix(1.25,0,0,-1.25,376.10332,605.33933)"><path
         d="m 0,0 c -0.443,-1.549 -1.881,-2.545 -3.431,-2.545 l -17.594,0 c -1.549,0 -2.988,1.107 -3.32,2.545 l -22.906,81.223 c -0.332,1.217 0.663,2.545 1.991,2.545 l 18.259,0 c 1.549,0 2.988,-1.106 3.32,-2.545 l 12.725,-46.808 c 0.111,-0.553 0.997,-0.664 1.218,0 L 4.979,81.223 c 0.443,1.549 1.882,2.545 3.43,2.545 l 14.386,0 c 1.549,0 2.988,-0.996 3.431,-2.545 L 40.943,34.525 c 0.222,-0.663 1.107,-0.553 1.217,0 l 12.726,46.698 c 0.332,1.439 1.771,2.545 3.32,2.545 l 18.369,0 c 1.328,0 2.324,-1.328 1.992,-2.545 L 55.661,0 c -0.332,-1.438 -1.771,-2.545 -3.32,-2.545 l -17.595,0 c -1.549,0 -2.988,0.996 -3.43,2.545 l -15.05,45.48 c -0.221,0.665 -1.106,0.665 -1.328,0 L 0,0 z"
         style="fill:#000000;fill-opacity:1;fill-rule:nonzero;stroke:none"
         id="path34"
         inkscape:connector-curvature="0" /></g><g
       style="display:inline"
       id="g36"
       transform="matrix(1.25,0,0,-1.25,504.04457,554.89845)"><path
         d="m 0,0 c 0,-13.058 10.513,-23.459 23.46,-23.459 13.278,0 23.459,10.401 23.459,23.459 0,13.058 -10.181,23.46 -23.459,23.46 C 10.513,23.46 0,13.058 0,0 m -22.353,0 c 0,24.677 20.915,44.817 45.813,44.817 25.23,0 45.812,-20.14 45.812,-44.817 0,-24.676 -20.582,-44.816 -45.812,-44.816 -24.898,0 -45.813,20.14 -45.813,44.816"
         style="fill:#000000;fill-opacity:1;fill-rule:nonzero;stroke:none"
         id="path38"
         inkscape:connector-curvature="0" /></g><g
       style="display:inline"
       id="g40"
       transform="matrix(1.25,0,0,-1.25,653.29094,526.12707)"><path
         d="m 0,0 -16.71,0 c -1.217,0 -2.213,-0.996 -2.213,-2.213 l 0,-18.59 c 0,-1.218 0.996,-2.214 2.213,-2.214 l 16.71,0 c 8.852,0 12.172,5.422 12.172,11.398 C 12.172,-4.979 8.852,0 0,0 m -40.944,17.484 c 0,1.438 1.218,2.656 2.656,2.656 l 39.505,0 c 22.131,0 32.312,-14.386 32.312,-31.538 0,-11.398 -4.758,-22.021 -15.049,-27.664 -1.107,-0.553 -1.328,-1.881 -0.664,-2.877 L 33.64,-63.96 c 0.664,-0.996 0,-2.213 -1.107,-2.213 l -21.135,0 c -1.661,0 -3.209,0.885 -4.205,2.213 l -13.5,19.143 c -0.775,1.107 -2.214,1.771 -3.541,1.771 l -6.862,0 c -1.217,0 -2.213,-0.996 -2.213,-2.213 l 0,-18.258 c 0,-1.439 -1.217,-2.656 -2.656,-2.656 l -16.709,0 c -1.438,0 -2.656,1.217 -2.656,2.656 l 0,81.001 z"
         style="fill:#000000;fill-opacity:1;fill-rule:nonzero;stroke:none"
         id="path42"
         inkscape:connector-curvature="0" /></g><g
       style="display:inline"
       id="g44"
       transform="matrix(1.25,0,0,-1.25,711.38182,609.0842)"><path
         d="m 0,0 c -1.438,0 -2.656,1.217 -2.656,2.656 l 0,81.001 c 0,1.439 1.218,2.656 2.656,2.656 l 16.82,0 c 1.439,0 2.656,-1.217 2.656,-2.656 l 0,-24.898 c 0,-0.774 0.996,-1.106 1.438,-0.553 l 23.57,26.115 c 1.107,1.217 2.767,1.992 4.427,1.992 l 23.238,0 c 0.996,0 1.549,-1.217 0.885,-1.992 L 42.271,50.903 C 41.386,49.907 41.276,48.468 42.05,47.472 L 75.026,2.103 C 75.69,1.217 75.026,0 73.92,0 L 51.788,0 c -1.66,0 -3.32,0.885 -4.205,2.103 l -20.914,28.66 c -0.664,0.885 -2.103,0.996 -2.767,0.11 l -2.988,-3.208 c -0.885,-0.996 -1.438,-2.546 -1.438,-3.874 l 0,-21.135 C 19.476,1.217 18.259,0 16.82,0 L 0,0 z"
         style="fill:#000000;fill-opacity:1;fill-rule:nonzero;stroke:none"
         id="path46"
         inkscape:connector-curvature="0" /></g><g
       style="display:inline"
       id="g48"
       transform="matrix(1.25,0,0,-1.25,811.52319,504.27232)"><path
         d="m 0,0 c 0,1.438 1.218,2.656 2.656,2.656 l 16.82,0 c 1.438,0 2.656,-1.218 2.656,-2.656 l 0,-81.001 c 0,-1.439 -1.218,-2.656 -2.656,-2.656 l -16.82,0 C 1.218,-83.657 0,-82.44 0,-81.001 L 0,0 z"
         style="fill:#000000;fill-opacity:1;fill-rule:nonzero;stroke:none"
         id="path50"
         inkscape:connector-curvature="0" /></g><g
       style="display:inline"
       id="g52"
       transform="matrix(1.25,0,0,-1.25,880.54395,605.52382)"><path
         d="m 0,0 c 0,-1.439 -1.217,-2.656 -2.656,-2.656 l -16.709,0 c -1.438,0 -2.656,1.217 -2.656,2.656 l 0,81.001 c 0,1.439 1.218,2.656 2.656,2.656 l 13.389,0 c 1.66,0 3.32,-0.775 4.316,-2.102 L 33.862,37.181 c 0.442,-0.664 1.327,-0.332 1.327,0.443 l 0,43.377 c 0,1.439 1.218,2.656 2.656,2.656 l 16.71,0 c 1.438,0 2.655,-1.217 2.655,-2.656 L 57.21,0 c 0,-1.439 -1.217,-2.656 -2.655,-2.656 l -13.39,0 c -1.66,0 -3.32,0.775 -4.316,2.103 L 1.328,43.71 C 0.885,44.374 0,44.041 0,43.267 L 0,0 z"
         style="fill:#000000;fill-opacity:1;fill-rule:nonzero;stroke:none"
         id="path54"
         inkscape:connector-curvature="0" /></g><g
       style="display:inline"
       id="g56"
       transform="matrix(1.25,0,0,-1.25,1018.31,568.86895)"><path
         d="m 0,0 c -1.438,0 -2.655,1.218 -2.655,2.656 l 0,13.058 c 0,1.438 1.217,2.656 2.655,2.656 l 36.296,0 c 1.439,0 2.656,-1.218 2.656,-2.656 l 0,-45.038 c 0,-1.439 -1.217,-2.656 -2.656,-2.656 l -12.062,0 c -1.438,0 -2.655,1.217 -2.655,2.656 l 0,3.209 c 0,0.664 -0.886,0.996 -1.328,0.443 -4.537,-5.201 -12.505,-7.968 -20.472,-7.968 -25.009,0 -45.813,20.14 -45.813,44.816 0,24.677 20.804,44.817 45.813,44.817 13.832,0 26.447,-6.307 34.857,-15.935 0.885,-1.106 0.664,-2.766 -0.442,-3.541 L 20.583,27.333 c -1.328,-0.886 -2.878,-0.775 -4.095,0.442 -4.205,4.205 -10.18,6.861 -16.709,6.861 -13.058,0 -23.46,-10.402 -23.46,-23.46 0,-13.057 10.402,-23.459 23.46,-23.459 7.303,0 13.721,3.541 17.816,8.963 0.332,0.443 0.663,1.328 0.663,1.882 l 0,0.331 C 18.258,-0.553 17.705,0 17.152,0 L 0,0 z"
         style="fill:#000000;fill-opacity:1;fill-rule:nonzero;stroke:none"
         id="path58"
         inkscape:connector-curvature="0" /></g></g><g
     inkscape:groupmode="layer"
     id="layer5"
     inkscape:label="metz"
     sodipodi:insensitive="true"><g
       style="display:inline"
       id="g68"
       transform="matrix(1.4104354,0,0,-1.25,816.5214,474.17709)"><path
         d="m 0,0 c 0,-0.635 -0.508,-1.143 -1.143,-1.143 l -1.461,0 c -0.635,0 -1.144,0.508 -1.144,1.143 l 0,47.258 c 0,0.635 0.509,1.143 1.144,1.143 l 1.27,0 c 0.699,0 1.398,-0.381 1.715,-1.016 L 20.962,12.513 c 0.19,-0.318 0.698,-0.318 0.888,0 l 20.581,34.872 c 0.317,0.635 1.016,1.016 1.715,1.016 l 1.27,0 c 0.635,0 1.143,-0.508 1.143,-1.143 L 46.559,0 c 0,-0.635 -0.508,-1.143 -1.143,-1.143 l -1.461,0 c -0.635,0 -1.144,0.508 -1.144,1.143 l 0,40.334 c 0,0.254 -0.317,0.318 -0.444,0.127 L 23.248,8.13 C 22.93,7.559 22.232,7.178 21.533,7.178 l -0.318,0 c -0.698,0 -1.397,0.381 -1.715,0.952 L 0.445,40.334 C 0.318,40.525 0,40.461 0,40.207 L 0,0 z"
         style="fill:#000000;fill-opacity:1;fill-rule:nonzero;stroke:none"
         id="path70"
         inkscape:connector-curvature="0" /></g><g
       style="display:inline"
       id="g72"
       transform="matrix(1.4104354,0,0,-1.25,897.95257,475.50778)"><path
         d="m 0,0 c -0.635,0 -1.144,0.508 -1.144,1.143 l 0,47.258 c 0,0.635 0.509,1.143 1.144,1.143 l 31.759,0 c 0.635,0 1.143,-0.508 1.143,-1.143 l 0,-1.397 c 0,-0.635 -0.508,-1.144 -1.143,-1.144 l -28.266,0 c -0.508,0 -0.889,-0.381 -0.889,-0.889 l 0,-17.976 c 0,-0.508 0.381,-0.889 0.889,-0.889 l 23.756,0 c 0.635,0 1.143,-0.508 1.143,-1.143 l 0,-1.27 c 0,-0.636 -0.508,-1.144 -1.143,-1.144 l -23.756,0 c -0.508,0 -0.889,-0.381 -0.889,-0.889 l 0,-17.087 c 0,-0.508 0.381,-0.889 0.889,-0.889 l 28.266,0 c 0.635,0 1.143,-0.508 1.143,-1.143 l 0,-1.398 C 32.902,0.508 32.394,0 31.759,0 L 0,0 z"
         style="fill:#000000;fill-opacity:1;fill-rule:nonzero;stroke:none"
         id="path74"
         inkscape:connector-curvature="0" /></g><g
       style="display:inline"
       id="g76"
       transform="matrix(1.4104354,0,0,-1.25,953.49228,418.18278)"><path
         d="m 0,0 c -0.635,0 -1.143,0.509 -1.143,1.144 l 0,1.397 c 0,0.635 0.508,1.143 1.143,1.143 l 37.222,0 c 0.635,0 1.143,-0.508 1.143,-1.143 l 0,-1.397 C 38.365,0.509 37.857,0 37.222,0 l -15.88,0 c -0.508,0 -0.889,-0.381 -0.889,-0.889 l 0,-43.828 c 0,-0.635 -0.508,-1.143 -1.143,-1.143 l -1.461,0 c -0.636,0 -1.144,0.508 -1.144,1.143 l 0,43.828 C 16.705,-0.381 16.325,0 15.816,0 L 0,0 z"
         style="fill:#000000;fill-opacity:1;fill-rule:nonzero;stroke:none"
         id="path78"
         inkscape:connector-curvature="0" /></g><g
       style="display:inline"
       id="g80"
       transform="matrix(1.4104354,0,0,-1.25,1015.663,418.18278)"><path
         d="m 0,0 c -0.635,0 -1.144,0.509 -1.144,1.144 l 0,1.397 c 0,0.635 0.509,1.143 1.144,1.143 l 35.189,0 c 0.635,0 1.143,-0.508 1.143,-1.143 l 0,-0.572 c 0,-0.699 -0.254,-1.524 -0.698,-2.032 L 3.684,-41.477 C 3.43,-41.795 3.62,-42.176 4.001,-42.176 l 31.061,0 c 0.635,0 1.143,-0.508 1.143,-1.143 l 0,-1.398 c 0,-0.635 -0.508,-1.143 -1.143,-1.143 l -36.142,0 c -0.635,0 -1.144,0.508 -1.144,1.143 l 0,0.572 c 0,0.698 0.255,1.525 0.699,2.033 L 30.362,-0.698 C 30.615,-0.381 30.425,0 30.044,0 L 0,0 z"
         style="fill:#000000;fill-opacity:1;fill-rule:nonzero;stroke:none"
         id="path82"
         inkscape:connector-curvature="0" /></g></g><g
     inkscape:groupmode="layer"
     id="layer3"
     inkscape:label="bulle"><g
       style="display:inline"
       id="g60"
       transform="matrix(0.76152107,0,0,-0.76152107,677.85673,413.55648)"><path
         d="m 0,0 c -33.067,-45.091 -86.853,-63.946 -134.587,-48.689 -56.144,17.944 -90.89,21.989 -89.424,-35.183 -73.298,131.936 -40.504,256.893 71.104,288.537 C -44.24,235.475 74.63,101.768 0,0"
         style="fill:#e9b11e;fill-opacity:1;fill-rule:nonzero;stroke:none"
         id="path62"
         inkscape:connector-curvature="0" /></g></g><g
     inkscape:groupmode="layer"
     id="layer2"
     inkscape:label="engrenage"
     style="display:inline"><path
       inkscape:connector-curvature="0"
       d="m 591.31097,349.42874 c -0.0272,-14.80828 -12.26531,-27.04463 -27.02079,-27.01568 -14.74357,0.0272 -27.11107,12.40668 -27.02759,27.05486 0.0869,14.87473 12.21418,26.93903 27.07017,26.92881 14.89003,-0.008 27.00546,-12.11881 26.97821,-26.96799 m -54.70585,39.45982 c -7.12482,4.8339 -7.13674,4.84412 -13.08459,-1.38476 -1.11395,-1.16675 -2.10183,-2.45272 -3.47467,-4.06572 5.99554,-4.28886 4.64824,-8.91496 0.21289,-13.65346 0.12947,0.0306 -0.0953,-0.0834 -0.30999,-0.0648 -8.66626,0.75797 -7.19123,2.61794 -9.76829,-7.16909 -1.67262,-6.36002 -2.3863,-5.05021 3.81192,-7.67326 1.92301,-0.81246 2.84789,-1.69987 2.29434,-3.83067 -0.19759,-0.76136 -0.23166,-1.6624 -0.029,-2.41525 0.77329,-2.88023 -0.50587,-4.3757 -3.18341,-4.93098 -3.72168,-0.76988 -4.41831,-2.94327 -3.25497,-6.29361 1.01514,-2.92112 1.78331,-5.92741 2.65881,-8.89111 3.00117,0.1516 6.21526,1.27236 8.09397,0.1516 2.06947,-1.23318 2.91261,-4.52561 4.32292,-6.97834 -1.5091,-2.09502 -2.99266,-4.15088 -4.92928,-6.83524 3.23622,-3.19195 6.48777,-6.39921 9.83301,-9.70015 2.48678,1.80716 4.52731,3.29243 6.71262,4.88329 0.96405,-0.56209 1.87701,-1.31833 2.92622,-1.6607 4.21562,-1.37796 5.33127,-4.12534 3.99419,-8.20128 -0.57912,-1.76631 0.18737,-2.77633 2.04393,-3.20898 1.90767,-0.44455 3.72848,-1.24849 5.62764,-1.73563 5.55266,-1.42565 5.69065,-1.44609 7.76694,3.81533 0.78692,1.99113 1.78673,2.71503 3.81193,2.39993 0.90445,-0.13967 1.87189,-0.1516 2.77123,0.002 2.47485,0.42583 3.92093,-0.48203 4.48132,-2.9637 0.80906,-3.5922 2.82744,-5.03829 6.47756,-3.49001 0.84143,0.35598 1.78845,0.45135 2.67926,0.69834 6.1812,1.71179 6.09432,1.71008 5.78773,7.88106 -0.0512,1.03558 0.73753,2.46295 1.59086,3.1187 1.71861,1.32004 3.74891,2.233 5.64808,3.31288 2.16315,-1.5585 4.21731,-3.04035 6.37195,-4.59204 1.15652,0.95383 2.25174,1.79696 3.28051,2.71844 6.84206,6.12156 6.83865,6.12668 2.14443,13.44565 2.04564,5.65489 4.99912,9.75639 12.18694,6.32768 1.09351,4.12364 1.92811,7.69711 3.00968,11.19394 0.72901,2.35053 -0.2163,3.35034 -2.29259,4.09297 -1.59256,0.57059 -4.01974,1.23828 -4.3587,2.37608 -0.69834,2.33518 -0.64211,5.10813 -0.0833,7.50974 0.24358,1.04582 2.40673,1.89235 3.84941,2.35902 2.68096,0.86529 3.82896,2.27729 2.77294,5.0792 -0.28446,0.75115 -0.3594,1.57894 -0.59615,2.35222 -2.81721,9.23005 -0.8278,7.60513 -10.27587,6.82843 -1.38989,2.36415 -2.83766,4.82708 -4.39274,7.47398 1.50057,2.10696 3.01819,4.24116 4.61415,6.48267 -0.90955,1.10884 -1.63514,2.16318 -2.52765,3.04547 -2.13932,2.11207 -4.09297,5.2512 -6.62915,5.86098 -2.05245,0.49395 -4.84583,-2.09675 -7.5898,-3.45766 -0.24699,0.14988 -0.79544,0.60978 -1.42734,0.84824 -4.40298,1.66239 -6.74669,4.32631 -5.08429,9.36461 0.19587,0.59444 -0.79544,2.02178 -1.56361,2.39992 -1.63856,0.80736 -3.47639,1.24169 -5.26142,1.7203 -6.04495,1.62152 -5.96998,1.56361 -8.8383,-4.11341 -0.47353,-0.9368 -1.98774,-1.3524 -3.02843,-1.99624 -0.0817,-0.0492 -0.23335,0.0325 -0.34066,0.006 -6.09943,-1.52784 -7.76524,2.88195 -9.24539,7.4365 -2.60431,-0.53313 -4.8816,-0.8806 -7.09414,-1.47503 -6.188,-1.6624 -6.08923,-1.69988 -5.91208,-8.03607 0.029,-1.0407 -0.85675,-2.41524 -1.73565,-3.10677 -1.61982,-1.27235 -3.54962,-2.15124 -5.4658,-3.26177"
       style="fill:#ffffff;fill-opacity:1;fill-rule:nonzero;stroke:none"
       id="path156" /><path
       inkscape:connector-curvature="0"
       d="m 636.80344,385.74858 c -4.55115,-0.0238 -8.15358,3.57859 -8.08205,8.08376 0.0665,4.20879 3.82385,7.95429 7.99519,7.96962 4.38253,0.0154 8.11611,-3.79661 8.05479,-8.22172 -0.0597,-4.38253 -3.54622,-7.80781 -7.96793,-7.83166 m 17.76009,25.14717 c -5.25291,-0.19587 -8.49425,1.90428 -10.6489,6.90168 -1.8225,4.22243 -3.23452,4.45408 -6.3362,1.03899 -3.89539,-4.29054 -7.51485,-5.13536 -12.88188,-3.00627 -4.08275,1.61983 -5.23418,0.81927 -5.10131,-3.55474 0.18736,-6.12157 -1.64537,-9.06994 -7.15888,-11.51245 -3.955,-1.75267 -4.19177,-3.2669 -0.96234,-6.15564 4.41659,-3.95159 5.27846,-7.58982 3.11018,-13.13738 -1.55169,-3.97033 -0.574,-5.27845 3.68418,-4.92928 5.38406,0.44455 9.03079,-1.70327 11.18542,-6.58657 2.07459,-4.69934 3.3299,-4.92077 6.71093,-1.18207 3.73187,4.12704 7.27298,4.90544 12.67237,2.78486 4.23947,-1.66582 5.44029,-0.75968 5.09963,3.8511 -0.39347,5.33467 1.78162,8.90474 6.74838,11.06619 4.61248,2.00816 4.7845,3.30266 0.88741,6.7041 -3.70633,3.23622 -5.02637,7.56084 -2.80359,12.03536 1.97068,3.96522 0.88911,6.40772 -4.2054,5.68212"
       style="fill:#ffffff;fill-opacity:1;fill-rule:nonzero;stroke:none"
       id="path160" /></g></svg>